MutatorSansInstance_600-400.ufo
<glyph name="comma" format="2">
  <advance width="252"/>
  <unicode hex="002C"/>
  <outline>
    <contour>
      <point x="193" y="0" type="line"/>
      <point x="193" y="244" type="line"/>
      <point x="59" y="244" type="line"/>
      <point x="59" y="0" type="line"/>
      <point x="119" y="-13" type="line"/>
      <point x="110" y="12" type="line"/>
      <point x="88" y="-123" type="line"/>
      <point x="136" y="-125" type="line"/>
    </contour>
  </outline>
</glyph>
<glyph name="period" format="2">
  <advance width="252"/>
  <unicode hex="002E"/>
  <outline>
    <contour>
      <point x="59" y="0" type="line"/>
      <point x="193" y="0" type="line"/>
      <point x="193" y="244" type="line"/>
      <point x="59" y="244" type="line"/>
    </contour>
  </outline>
</glyph>
<glyph name="A" format="2">
  <advance width="864"/>
  <unicode hex="0041"/>
  <outline>
    <contour>
      <point x="23" y="0" type="line"/>
      <point x="206" y="0" type="line"/>
      <point x="419" y="760" type="line"/>
      <point x="261" y="760" type="line"/>
    </contour>
    <contour>
      <point x="149" y="147" type="line"/>
      <point x="665" y="147" type="line"/>
      <point x="665" y="289" type="line"/>
      <point x="149" y="289" type="line"/>
    </contour>
    <contour>
      <point x="588" y="0" type="line"/>
      <point x="842" y="0" type="line"/>
      <point x="603" y="760" type="line"/>
      <point x="363" y="760" type="line"/>
    </contour>
    <contour>
      <point x="304" y="589" type="line"/>
      <point x="527" y="589" type="line"/>
      <point x="527" y="760" type="line"/>
      <point x="304" y="760" type="line"/>
    </contour>
  </outline>
</glyph>
<glyph name="B" format="2">
  <advance width="862"/>
  <unicode hex="0042"/>
  <outline>
    <contour>
      <point x="59" y="0" type="line"/>
      <point x="287" y="0" type="line"/>
      <point x="287" y="760" type="line"/>
      <point x="59" y="760" type="line"/>
    </contour>
    <contour>
      <point x="250" y="339" type="line"/>
      <point x="503" y="339" type="line" smooth="yes"/>
      <point x="568" y="339"/>
      <point x="605" y="309"/>
      <point x="605" y="247" type="curve" smooth="yes"/>
      <point x="605" y="187"/>
      <point x="567" y="157"/>
      <point x="501" y="157" type="curve" smooth="yes"/>
      <point x="250" y="157" type="line"/>
      <point x="250" y="0" type="line"/>
      <point x="557" y="0" type="line" smooth="yes"/>
      <point x="772" y="0"/>
      <point x="831" y="89"/>
      <point x="831" y="211" type="curve" smooth="yes"/>
      <point x="831" y="323"/>
      <point x="773" y="390"/>
      <point x="668" y="405" type="curve"/>
      <point x="659" y="365" type="line"/>
      <point x="742" y="382"/>
      <point x="806" y="442"/>
      <point x="806" y="545" type="curve" smooth="yes"/>
      <point x="806" y="674"/>
      <point x="739" y="760"/>
      <point x="526" y="760" type="curve" smooth="yes"/>
      <point x="250" y="760" type="line"/>
      <point x="250" y="610" type="line"/>
      <point x="479" y="610" type="line" smooth="yes"/>
      <point x="550" y="610"/>
      <point x="583" y="580"/>
      <point x="583" y="522" type="curve" smooth="yes"/>
      <point x="583" y="458"/>
      <point x="546" y="432"/>
      <point x="479" y="432" type="curve" smooth="yes"/>
      <point x="250" y="432" type="line"/>
    </contour>
  </outline>
</glyph>
<glyph name="C" format="2">
  <advance width="954"/>
  <unicode hex="0043"/>
  <outline>
    <contour>
      <point x="689" y="331" type="line"/>
      <point x="675" y="208"/>
      <point x="608" y="163"/>
      <point x="501" y="163" type="curve" smooth="yes"/>
      <point x="465" y="163" type="line" smooth="yes"/>
      <point x="347" y="163"/>
      <point x="277" y="224"/>
      <point x="277" y="383" type="curve" smooth="yes"/>
      <point x="277" y="539"/>
      <point x="347" y="597"/>
      <point x="465" y="597" type="curve" smooth="yes"/>
      <point x="501" y="597" type="line" smooth="yes"/>
      <point x="608" y="597"/>
      <point x="674" y="555"/>
      <point x="689" y="436" type="curve"/>
      <point x="912" y="459" type="line"/>
      <point x="884" y="673"/>
      <point x="737" y="770"/>
      <point x="516" y="770" type="curve" smooth="yes"/>
      <point x="449" y="770" type="line" smooth="yes"/>
      <point x="198" y="770"/>
      <point x="42" y="650"/>
      <point x="42" y="383" type="curve" smooth="yes"/>
      <point x="42" y="113"/>
      <point x="198" y="-10"/>
      <point x="449" y="-10" type="curve" smooth="yes"/>
      <point x="516" y="-10" type="line" smooth="yes"/>
      <point x="738" y="-10"/>
      <point x="886" y="90"/>
      <point x="912" y="308" type="curve"/>
    </contour>
  </outline>
</glyph>
<glyph name="D" format="2">
  <advance width="869"/>
  <unicode hex="0044"/>
  <outline>
    <contour>
      <point x="59" y="0" type="line"/>
      <point x="280" y="0" type="line"/>
      <point x="280" y="760" type="line"/>
      <point x="59" y="760" type="line"/>
    </contour>
    <contour>
      <point x="241" y="593" type="line"/>
      <point x="394" y="593" type="line" smooth="yes"/>
      <point x="517" y="593"/>
      <point x="592" y="539"/>
      <point x="592" y="383" type="curve" smooth="yes"/>
      <point x="592" y="224"/>
      <point x="517" y="167"/>
      <point x="394" y="167" type="curve" smooth="yes"/>
      <point x="238" y="167" type="line"/>
      <point x="238" y="0" type="line"/>
      <point x="410" y="0" type="line" smooth="yes"/>
      <point x="664" y="0"/>
      <point x="827" y="115"/>
      <point x="827" y="383" type="curve" smooth="yes"/>
      <point x="827" y="648"/>
      <point x="664" y="760"/>
      <point x="410" y="760" type="curve" smooth="yes"/>
      <point x="241" y="760" type="line"/>
    </contour>
  </outline>
</glyph>
<glyph name="E" format="2">
  <advance width="774"/>
  <unicode hex="0045"/>
  <anchor x="387" y="803" name="top"/>
  <outline>
    <contour>
      <point x="62" y="0" type="line"/>
      <point x="284" y="0" type="line"/>
      <point x="284" y="760" type="line"/>
      <point x="62" y="760" type="line"/>
    </contour>
    <contour>
      <point x="124" y="584" type="line"/>
      <point x="720" y="584" type="line"/>
      <point x="720" y="760" type="line"/>
      <point x="124" y="760" type="line"/>
    </contour>
    <contour>
      <point x="124" y="0" type="line"/>
      <point x="720" y="0" type="line"/>
      <point x="720" y="176" type="line"/>
      <point x="124" y="176" type="line"/>
    </contour>
    <contour>
      <point x="124" y="323" type="line"/>
      <point x="632" y="323" type="line"/>
      <point x="632" y="439" type="line"/>
      <point x="124" y="439" type="line"/>
    </contour>
  </outline>
</glyph>
<glyph name="F" format="2">
  <advance width="772"/>
  <unicode hex="0046"/>
  <outline>
    <contour>
      <point x="59" y="0" type="line"/>
      <point x="291" y="0" type="line"/>
      <point x="291" y="760" type="line"/>
      <point x="59" y="760" type="line"/>
    </contour>
    <contour>
      <point x="124" y="591" type="line"/>
      <point x="713" y="591" type="line"/>
      <point x="713" y="760" type="line"/>
      <point x="124" y="760" type="line"/>
    </contour>
    <contour>
      <point x="124" y="278" type="line"/>
      <point x="673" y="278" type="line"/>
      <point x="673" y="423" type="line"/>
      <point x="124" y="423" type="line"/>
    </contour>
  </outline>
</glyph>
<glyph name="G" format="2">
  <advance width="979"/>
  <unicode hex="0047"/>
  <outline>
    <contour>
      <point x="440" y="305" type="line"/>
      <point x="724" y="305" type="line"/>
      <point x="724" y="216" type="line"/>
      <point x="813" y="0" type="line"/>
      <point x="922" y="0" type="line"/>
      <point x="922" y="382" type="line"/>
      <point x="440" y="382" type="line"/>
    </contour>
    <contour>
      <point x="705" y="338" type="line"/>
      <point x="691" y="210"/>
      <point x="622" y="163"/>
      <point x="509" y="163" type="curve" smooth="yes"/>
      <point x="465" y="163" type="line" smooth="yes"/>
      <point x="347" y="163"/>
      <point x="277" y="224"/>
      <point x="277" y="383" type="curve" smooth="yes"/>
      <point x="277" y="539"/>
      <point x="350" y="597"/>
      <point x="472" y="597" type="curve" smooth="yes"/>
      <point x="517" y="597" type="line" smooth="yes"/>
      <point x="625" y="597"/>
      <point x="690" y="555"/>
      <point x="704" y="436" type="curve"/>
      <point x="916" y="459" type="line"/>
      <point x="888" y="673"/>
      <point x="745" y="770"/>
      <point x="526" y="770" type="curve" smooth="yes"/>
      <point x="451" y="770" type="line" smooth="yes"/>
      <point x="201" y="770"/>
      <point x="42" y="650"/>
      <point x="42" y="383" type="curve" smooth="yes"/>
      <point x="42" y="113"/>
      <point x="198" y="-10"/>
      <point x="449" y="-10" type="curve" smooth="yes"/>
      <point x="481" y="-10" type="line" smooth="yes"/>
      <point x="701" y="-10"/>
      <point x="842" y="93"/>
      <point x="866" y="315" type="curve"/>
    </contour>
  </outline>
</glyph>
<glyph name="H" format="2">
  <advance width="889"/>
  <unicode hex="0048"/>
  <outline>
    <contour>
      <point x="59" y="0" type="line"/>
      <point x="291" y="0" type="line"/>
      <point x="291" y="760" type="line"/>
      <point x="59" y="760" type="line"/>
    </contour>
    <contour>
      <point x="148" y="292" type="line"/>
      <point x="743" y="292" type="line"/>
      <point x="743" y="462" type="line"/>
      <point x="148" y="462" type="line"/>
    </contour>
    <contour>
      <point x="598" y="0" type="line"/>
      <point x="830" y="0" type="line"/>
      <point x="830" y="760" type="line"/>
      <point x="598" y="760" type="line"/>
    </contour>
  </outline>
</glyph>
<glyph name="I" format="2">
  <advance width="672"/>
  <unicode hex="0049"/>
  <outline>
    <contour>
      <point x="221" y="0" type="line"/>
      <point x="453" y="0" type="line"/>
      <point x="453" y="760" type="line"/>
      <point x="221" y="760" type="line"/>
    </contour>
    <contour>
      <point x="59" y="580" type="line"/>
      <point x="613" y="580" type="line"/>
      <point x="613" y="760" type="line"/>
      <point x="59" y="760" type="line"/>
    </contour>
    <contour>
      <point x="59" y="0" type="line"/>
      <point x="613" y="0" type="line"/>
      <point x="613" y="180" type="line"/>
      <point x="59" y="180" type="line"/>
    </contour>
  </outline>
</glyph>
<glyph name="J" format="2">
  <advance width="682"/>
  <unicode hex="004A"/>
  <outline>
    <contour>
      <point x="210" y="-10" type="curve" smooth="yes"/>
      <point x="466" y="-10"/>
      <point x="624" y="99"/>
      <point x="624" y="337" type="curve" smooth="yes"/>
      <point x="624" y="760" type="line"/>
      <point x="388" y="760" type="line"/>
      <point x="388" y="368" type="line" smooth="yes"/>
      <point x="388" y="230"/>
      <point x="317" y="177"/>
      <point x="198" y="177" type="curve" smooth="yes"/>
      <point x="166" y="177"/>
      <point x="129" y="180"/>
      <point x="92" y="188" type="curve"/>
      <point x="59" y="8" type="line"/>
      <point x="104" y="-4"/>
      <point x="155" y="-10"/>
    </contour>
  </outline>
</glyph>
<glyph name="K" format="2">
  <advance width="877"/>
  <unicode hex="004B"/>
  <outline>
    <contour>
      <point x="59" y="0" type="line"/>
      <point x="291" y="0" type="line"/>
      <point x="291" y="760" type="line"/>
      <point x="59" y="760" type="line"/>
    </contour>
    <contour>
      <point x="234" y="315" type="line"/>
      <point x="318" y="315" type="line"/>
      <point x="569" y="0" type="line"/>
      <point x="851" y="0" type="line"/>
      <point x="510" y="461" type="line"/>
      <point x="328" y="412" type="line"/>
      <point x="234" y="412" type="line"/>
    </contour>
    <contour>
      <point x="305" y="390" type="line"/>
      <point x="458" y="320" type="line"/>
      <point x="843" y="760" type="line"/>
      <point x="587" y="760" type="line"/>
    </contour>
  </outline>
</glyph>
<glyph name="L" format="2">
  <advance width="699"/>
  <unicode hex="004C"/>
  <outline>
    <contour>
      <point x="59" y="0" type="line"/>
      <point x="291" y="0" type="line"/>
      <point x="291" y="760" type="line"/>
      <point x="59" y="760" type="line"/>
    </contour>
    <contour>
      <point x="124" y="0" type="line"/>
      <point x="673" y="0" type="line"/>
      <point x="673" y="172" type="line"/>
      <point x="124" y="172" type="line"/>
    </contour>
  </outline>
</glyph>
<glyph name="M" format="2">
  <advance width="932"/>
  <unicode hex="004D"/>
  <outline>
    <contour>
      <point x="59" y="0" type="line"/>
      <point x="242" y="0" type="line"/>
      <point x="242" y="760" type="line"/>
      <point x="59" y="760" type="line"/>
    </contour>
    <contour>
      <point x="874" y="0" type="line"/>
      <point x="874" y="760" type="line"/>
      <point x="691" y="760" type="line"/>
      <point x="691" y="0" type="line"/>
    </contour>
    <contour>
      <point x="776" y="514" type="line"/>
      <point x="691" y="760" type="line"/>
      <point x="449" y="453" type="line"/>
      <point x="484" y="453" type="line"/>
      <point x="242" y="760" type="line"/>
      <point x="157" y="514" type="line"/>
      <point x="430" y="185" type="line"/>
      <point x="503" y="185" type="line"/>
    </contour>
  </outline>
</glyph>
<glyph name="N" format="2">
  <advance width="890"/>
  <unicode hex="004E"/>
  <outline>
    <contour>
      <point x="59" y="0" type="line"/>
      <point x="240" y="0" type="line"/>
      <point x="240" y="760" type="line"/>
      <point x="59" y="760" type="line"/>
    </contour>
    <contour>
      <point x="140" y="557" type="line"/>
      <point x="649" y="0" type="line"/>
      <point x="749" y="203" type="line"/>
      <point x="240" y="760" type="line"/>
    </contour>
    <contour>
      <point x="649" y="0" type="line"/>
      <point x="831" y="0" type="line"/>
      <point x="831" y="760" type="line"/>
      <point x="649" y="760" type="line"/>
    </contour>
  </outline>
</glyph>
<glyph name="O" format="2">
  <advance width="967"/>
  <unicode hex="004F"/>
  <outline>
    <contour>
      <point x="449" y="-10" type="curve" smooth="yes"/>
      <point x="518" y="-10" type="line" smooth="yes"/>
      <point x="768" y="-10"/>
      <point x="926" y="113"/>
      <point x="926" y="383" type="curve" smooth="yes"/>
      <point x="926" y="650"/>
      <point x="768" y="770"/>
      <point x="518" y="770" type="curve" smooth="yes"/>
      <point x="449" y="770" type="line" smooth="yes"/>
      <point x="198" y="770"/>
      <point x="42" y="650"/>
      <point x="42" y="383" type="curve" smooth="yes"/>
      <point x="42" y="113"/>
      <point x="198" y="-10"/>
    </contour>
    <contour>
      <point x="465" y="163" type="line" smooth="yes"/>
      <point x="347" y="163"/>
      <point x="277" y="224"/>
      <point x="277" y="383" type="curve" smooth="yes"/>
      <point x="277" y="539"/>
      <point x="347" y="597"/>
      <point x="465" y="597" type="curve" smooth="yes"/>
      <point x="503" y="597" type="line" smooth="yes"/>
      <point x="621" y="597"/>
      <point x="690" y="539"/>
      <point x="690" y="383" type="curve" smooth="yes"/>
      <point x="690" y="224"/>
      <point x="621" y="163"/>
      <point x="503" y="163" type="curve" smooth="yes"/>
    </contour>
  </outline>
</glyph>
<glyph name="P" format="2">
  <advance width="818"/>
  <unicode hex="0050"/>
  <outline>
    <contour>
      <point x="59" y="0" type="line"/>
      <point x="291" y="0" type="line"/>
      <point x="291" y="760" type="line"/>
      <point x="59" y="760" type="line"/>
    </contour>
    <contour>
      <point x="217" y="584" type="line"/>
      <point x="439" y="584" type="line" smooth="yes"/>
      <point x="542" y="584"/>
      <point x="581" y="541"/>
      <point x="581" y="457" type="curve" smooth="yes"/>
      <point x="581" y="370"/>
      <point x="542" y="329"/>
      <point x="439" y="329" type="curve" smooth="yes"/>
      <point x="217" y="329" type="line"/>
      <point x="217" y="153" type="line"/>
      <point x="435" y="153" type="line" smooth="yes"/>
      <point x="708" y="153"/>
      <point x="793" y="266"/>
      <point x="793" y="457" type="curve" smooth="yes"/>
      <point x="793" y="648"/>
      <point x="708" y="760"/>
      <point x="436" y="760" type="curve" smooth="yes"/>
      <point x="217" y="760" type="line"/>
    </contour>
  </outline>
</glyph>
<glyph name="Q" format="2">
  <advance width="967"/>
  <unicode hex="0051"/>
  <outline>
    <contour>
      <point x="474" y="-130" type="line"/>
      <point x="704" y="-130" type="line"/>
      <point x="592" y="107" type="line"/>
      <point x="376" y="100" type="line"/>
    </contour>
    <component base="O"/>
  </outline>
</glyph>
<glyph name="R" format="2">
  <advance width="834"/>
  <unicode hex="0052"/>
  <outline>
    <contour>
      <point x="555" y="0" type="line"/>
      <point x="795" y="0" type="line"/>
      <point x="726" y="143" type="line" smooth="yes"/>
      <point x="691" y="201"/>
      <point x="653" y="237"/>
      <point x="594" y="236" type="curve"/>
      <point x="447" y="236" type="line"/>
    </contour>
    <contour>
      <point x="59" y="0" type="line"/>
      <point x="291" y="0" type="line"/>
      <point x="291" y="760" type="line"/>
      <point x="59" y="760" type="line"/>
    </contour>
    <contour>
      <point x="217" y="584" type="line"/>
      <point x="444" y="584" type="line" smooth="yes"/>
      <point x="546" y="584"/>
      <point x="583" y="541"/>
      <point x="583" y="457" type="curve" smooth="yes"/>
      <point x="583" y="370"/>
      <point x="546" y="329"/>
      <point x="444" y="329" type="curve" smooth="yes"/>
      <point x="217" y="329" type="line"/>
      <point x="217" y="189" type="line"/>
      <point x="442" y="189" type="line" smooth="yes"/>
      <point x="708" y="189"/>
      <point x="796" y="296"/>
      <point x="796" y="475" type="curve" smooth="yes"/>
      <point x="796" y="654"/>
      <point x="704" y="760"/>
      <point x="439" y="760" type="curve" smooth="yes"/>
      <point x="217" y="760" type="line"/>
    </contour>
  </outline>
</glyph>
<glyph name="S" format="2">
  <advance width="830"/>
  <unicode hex="0053"/>
  <outline>
    <contour>
      <point x="788" y="220" type="curve" smooth="yes"/>
      <point x="788" y="385"/>
      <point x="693" y="441"/>
      <point x="492" y="464" type="curve" smooth="yes"/>
      <point x="384" y="477" type="line" smooth="yes"/>
      <point x="276" y="493"/>
      <point x="244" y="510"/>
      <point x="244" y="548" type="curve" smooth="yes"/>
      <point x="244" y="585"/>
      <point x="283" y="609"/>
      <point x="385" y="609" type="curve" smooth="yes"/>
      <point x="460" y="609" type="line" smooth="yes"/>
      <point x="570" y="609"/>
      <point x="666" y="595"/>
      <point x="740" y="574" type="curve"/>
      <point x="769" y="728" type="line"/>
      <point x="694" y="750"/>
      <point x="577" y="770"/>
      <point x="486" y="770" type="curve" smooth="yes"/>
      <point x="432" y="770" type="line" smooth="yes"/>
      <point x="169" y="770"/>
      <point x="52" y="685"/>
      <point x="53" y="531" type="curve" smooth="yes"/>
      <point x="53" y="381"/>
      <point x="158" y="322"/>
      <point x="348" y="298" type="curve" smooth="yes"/>
      <point x="452" y="284" type="line" smooth="yes"/>
      <point x="559" y="266"/>
      <point x="593" y="255"/>
      <point x="593" y="214" type="curve" smooth="yes"/>
      <point x="593" y="176"/>
      <point x="552" y="152"/>
      <point x="440" y="152" type="curve" smooth="yes"/>
      <point x="369" y="152" type="line" smooth="yes"/>
      <point x="252" y="152"/>
      <point x="149" y="166"/>
      <point x="67" y="188" type="curve"/>
      <point x="39" y="33" type="line"/>
      <point x="123" y="10"/>
      <point x="249" y="-10"/>
      <point x="344" y="-10" type="curve" smooth="yes"/>
      <point x="401" y="-10" type="line" smooth="yes"/>
      <point x="693" y="-10"/>
      <point x="788" y="87"/>
    </contour>
  </outline>
</glyph>
<glyph name="T" format="2">
  <advance width="814"/>
  <unicode hex="0054"/>
  <outline>
    <contour>
      <point x="291" y="0" type="line"/>
      <point x="523" y="0" type="line"/>
      <point x="523" y="760" type="line"/>
      <point x="291" y="760" type="line"/>
    </contour>
    <contour>
      <point x="26" y="581" type="line"/>
      <point x="788" y="581" type="line"/>
      <point x="788" y="760" type="line"/>
      <point x="26" y="760" type="line"/>
    </contour>
  </outline>
</glyph>
<glyph name="U" format="2">
  <advance width="891"/>
  <unicode hex="0055"/>
  <outline>
    <contour>
      <point x="445" y="-10" type="curve" smooth="yes"/>
      <point x="692" y="-10"/>
      <point x="825" y="96"/>
      <point x="825" y="327" type="curve" smooth="yes"/>
      <point x="825" y="760" type="line"/>
      <point x="590" y="760" type="line"/>
      <point x="590" y="309" type="line" smooth="yes"/>
      <point x="590" y="208"/>
      <point x="536" y="170"/>
      <point x="445" y="170" type="curve" smooth="yes"/>
      <point x="355" y="170"/>
      <point x="301" y="208"/>
      <point x="301" y="309" type="curve" smooth="yes"/>
      <point x="301" y="760" type="line"/>
      <point x="66" y="760" type="line"/>
      <point x="66" y="327" type="line" smooth="yes"/>
      <point x="66" y="96"/>
      <point x="197" y="-10"/>
    </contour>
  </outline>
</glyph>
<glyph name="V" format="2">
  <advance width="866"/>
  <unicode hex="0056"/>
  <outline>
    <contour>
      <point x="846" y="760" type="line"/>
      <point x="660" y="760" type="line"/>
      <point x="439" y="0" type="line"/>
      <point x="601" y="0" type="line"/>
    </contour>
    <contour>
      <point x="275" y="760" type="line"/>
      <point x="20" y="760" type="line"/>
      <point x="264" y="0" type="line"/>
      <point x="505" y="0" type="line"/>
    </contour>
    <contour>
      <point x="562" y="171" type="line"/>
      <point x="337" y="171" type="line"/>
      <point x="337" y="0" type="line"/>
      <point x="562" y="0" type="line"/>
    </contour>
  </outline>
</glyph>
<glyph name="W" format="2">
  <advance width="992"/>
  <unicode hex="0057"/>
  <outline>
    <contour>
      <point x="971" y="760" type="line"/>
      <point x="770" y="760" type="line"/>
      <point x="667" y="187" type="line"/>
      <point x="691" y="187" type="line"/>
      <point x="584" y="760" type="line"/>
      <point x="430" y="760" type="line"/>
      <point x="329" y="185" type="line"/>
      <point x="355" y="185" type="line"/>
      <point x="246" y="760" type="line"/>
      <point x="20" y="760" type="line"/>
      <point x="173" y="0" type="line"/>
      <point x="397" y="0" type="line"/>
      <point x="498" y="518" type="line"/>
      <point x="463" y="518" type="line"/>
      <point x="577" y="0" type="line"/>
      <point x="822" y="0" type="line"/>
    </contour>
  </outline>
</glyph>
<glyph name="X" format="2">
  <advance width="836"/>
  <unicode hex="0058"/>
  <outline>
    <contour>
      <point x="542" y="0" type="line"/>
      <point x="817" y="0" type="line"/>
      <point x="509" y="432" type="line"/>
      <point x="298" y="760" type="line"/>
      <point x="23" y="760" type="line"/>
      <point x="321" y="353" type="line"/>
    </contour>
    <contour>
      <point x="20" y="0" type="line"/>
      <point x="228" y="0" type="line"/>
      <point x="409" y="325" type="line"/>
      <point x="528" y="338" type="line"/>
      <point x="813" y="760" type="line"/>
      <point x="604" y="760" type="line"/>
      <point x="421" y="456" type="line"/>
      <point x="301" y="437" type="line"/>
    </contour>
  </outline>
</glyph>
<glyph name="Y" format="2">
  <advance width="816"/>
  <unicode hex="0059"/>
  <outline>
    <contour>
      <point x="798" y="760" type="line"/>
      <point x="613" y="760" type="line"/>
      <point x="375" y="205" type="line"/>
      <point x="523" y="200" type="line"/>
    </contour>
    <contour>
      <point x="266" y="760" type="line"/>
      <point x="18" y="760" type="line"/>
      <point x="293" y="200" type="line"/>
      <point x="504" y="205" type="line"/>
    </contour>
    <contour>
      <point x="524" y="283" type="line"/>
      <point x="292" y="283" type="line"/>
      <point x="292" y="0" type="line"/>
      <point x="524" y="0" type="line"/>
    </contour>
  </outline>
</glyph>
<glyph name="Z" format="2">
  <advance width="835"/>
  <unicode hex="005A"/>
  <outline>
    <contour>
      <point x="59" y="172" type="line"/>
      <point x="324" y="135" type="line"/>
      <point x="776" y="588" type="line"/>
      <point x="512" y="625" type="line"/>
    </contour>
    <contour>
      <point x="59" y="588" type="line"/>
      <point x="776" y="588" type="line"/>
      <point x="776" y="760" type="line"/>
      <point x="59" y="760" type="line"/>
    </contour>
    <contour>
      <point x="59" y="0" type="line"/>
      <point x="776" y="0" type="line"/>
      <point x="776" y="172" type="line"/>
      <point x="59" y="172" type="line"/>
    </contour>
  </outline>
</glyph>
